<?xml version="1.0" encoding="UTF-8" standalone="no"?>
<!-- Created with Inkscape (http://www.inkscape.org/) -->
<svg id="svg2" xmlns:rdf="http://www.w3.org/1999/02/22-rdf-syntax-ns#" xmlns="http://www.w3.org/2000/svg" height="315.56" width="330.83" version="1.1" xmlns:cc="http://creativecommons.org/ns#" xmlns:dc="http://purl.org/dc/elements/1.1/">
 <metadata id="metadata4">
  <rdf:RDF>
   <cc:Work rdf:about="">
    <dc:format>image/svg+xml</dc:format>
    <dc:type rdf:resource="http://purl.org/dc/dcmitype/StillImage"/>
    <dc:title/>
   </cc:Work>
  </rdf:RDF>
 </metadata>
 <rect id="rect8" stroke-linejoin="round" rx="10" ry="10" height="297.36" width="297.36" stroke="#b1daec" stroke-linecap="round" stroke-dasharray="none" stroke-miterlimit="4" y="9.1001" x="16.731" stroke-width="18.2" fill="none"/>
 <rect id="rect10" rx="9.81" ry="9.8102" height="293.16" width="293.16" y="11.2" x="18.831" fill="#363940"/>
 <rect id="rect12" height="61.619" width="330.82" y="140.97" x="0.0012322" fill="#b1daec"/>
 <path id="path14" d="m247.07,268.75-14.198-7.5179-14.203,7.5091,2.7626-15.826-11.53-11.187,15.905-2.2632,7.0768-14.423,7.0674,14.427,15.904,2.2736-11.538,11.18z" fill="#f4e20a"/>
 <path id="path16" d="m112.13,268.75-14.198-7.5179-14.203,7.5091,2.7626-15.826-11.53-11.187,15.905-2.2632,7.0768-14.423,7.0673,14.427,15.904,2.2736-11.538,11.18z" fill="#f4e20a"/>
 <path id="path18" d="m179.6,268.75-14.198-7.5179-14.203,7.5091,2.7626-15.826-11.53-11.187,15.905-2.2632,7.0768-14.423,7.0674,14.427,15.904,2.2736-11.538,11.18z" fill="#f4e20a"/>
 <text id="text20" font-size="40px" font-family="Aller" xml:space="preserve" style="word-spacing:0px;letter-spacing:0px;" font-style="normal" font-stretch="normal" line-height="125%" font-variant="normal" y="184.34058" x="70.449875" font-weight="bold" fill="#363940"><tspan id="tspan22" y="184.34058" x="70.449875">CONFIRME</tspan></text>
 <rect id="rect24" height="67.94" width="256.42" y="56.22" x="31.811" fill="none"/>
 <path id="path26" d="m80.371,79.43-2.3703,2.3372-22.746,22.698c-0.54745,0.54445-1.3566,0.66777-2.1206-0.0962l-4.4217-4.3646c-0.54445-0.59258-0.57453-1.4168,0.0571-2.0484l18.553-18.538,13.049,0.012z" fill="#2b7883" fill-rule="nonzero"/>
 <path id="path28" d="m80.371,79.43,10.131,10.152c0.50534,0.50534,0.54143,1.5642-0.0842,2.1868l-4.4127,4.4007c-0.52941,0.52941-1.4168,0.49331-1.9913-0.0782l-16.691-16.673,13.049,0.012z" fill="#2d9e9f" fill-rule="nonzero"/>
 <path id="path30" d="m46.561,84.12,2.3101-2.2891,22.292-22.295c0.54745-0.54144,1.4769-0.62566,2.1266,0.0932l4.4247,4.3616c0.57152,0.5655,0.57152,1.4168-0.0541,2.0484l-18.111,18.12-12.988-0.0391z" fill="#309751" fill-rule="nonzero"/>
 <path id="path32" d="m46.551,84.15-10.143-10.14c-0.50835-0.50534-0.54144-1.5581,0.0842-2.1838l4.4067-4.4097c0.52941-0.5294,1.4168-0.4933,1.9883,0.0722l16.664,16.673-13-0.012z" fill="#63bc51" fill-rule="nonzero"/>
 <path id="path34" d="m112.65,92.14c2.6019,0,4.524-0.91142,5.7693-2.7312,1.2453-1.8258,1.871-4.3525,1.871-7.6042,0-3.2426-0.62566-5.7693-1.871-7.5741s-3.1674-2.7072-5.7693-2.7072-4.521,0.9024-5.7482,2.7072c-1.2273,1.8048-1.8379,4.3315-1.8379,7.5741,0,3.2516,0.61062,5.7783,1.8379,7.6042,1.2273,1.8198,3.1464,2.7312,5.7482,2.7312m0,4.3195c-2.262,0-4.2473-0.36998-5.9438-1.122-1.6995-0.74297-3.1163-1.7717-4.2473-3.0862s-1.9702-2.8606-2.5207-4.6473c-0.54745-1.7898-0.81516-3.7239-0.81516-5.7994,0-2.0815,0.26771-4.0126,0.81516-5.7964,0.55046-1.7898,1.3897-3.3358,2.5207-4.6473,1.131-1.3145,2.5478-2.3522,4.2473-3.1193,1.6965-0.77004,3.6818-1.152,5.9438-1.152s4.2473,0.38201,5.9438,1.152c1.6965,0.76704,3.1133,1.8048,4.2412,3.1193,1.131,1.3115,1.9762,2.8576,2.5177,4.6473,0.54745,1.7837,0.82118,3.7149,0.82118,5.7964,0,2.0755-0.27373,4.0096-0.82118,5.7994-0.54143,1.7867-1.3867,3.3328-2.5177,4.6473-1.128,1.3145-2.5448,2.3432-4.2412,3.0862-1.6965,0.752-3.6818,1.122-5.9438,1.122" fill="#FFF" fill-rule="nonzero"/>
 <path id="path36" d="m135.32,91.22c0.71289,0.25568,1.4528,0.43616,2.2079,0.54745,0.75199,0.10829,1.7356,0.15943,2.9418,0.15943,1.3596,0,2.6049-0.20756,3.7359-0.62566,1.131-0.42112,2.1026-1.0678,2.9178-1.9371,0.80914-0.87533,1.4468-1.9793,1.9221-3.3148,0.47225-1.3265,0.70386-2.9087,0.70386-4.7285,0-2.9177-0.55347-5.2339-1.6664-6.9514-1.113-1.7055-2.9358-2.5658-5.4625-2.5658-0.94752,0-1.8469,0.16844-2.7162,0.4933-0.8693,0.32787-1.6424,0.81818-2.3222,1.4799-0.6798,0.65273-1.2272,1.4829-1.6363,2.4816-0.41811,1.0077-0.62566,2.1988-0.62566,3.5885v11.373zm-5.6039-23.465c0.376-0.0722,0.76704-0.12633,1.1611-0.15942,0.39104-0.0391,0.80313-0.0571,1.2152-0.0571,0.37299,0,0.77305,0.0181,1.1912,0.0571,0.40908,0.0331,0.80914,0.0872,1.1851,0.15942,0.0391,0.0782,0.0902,0.30381,0.14138,0.68582,0.0602,0.37901,0.1143,0.7911,0.17446,1.2303,0.0511,0.43615,0.11129,0.86028,0.16544,1.2573,0.0602,0.40006,0.0842,0.65574,0.0842,0.76403,0.38202-0.58054,0.83321-1.146,1.3626-1.6935,0.52639-0.54745,1.1551-1.0408,1.895-1.4769,0.73696-0.43917,1.5672-0.78508,2.4876-1.0408,0.92646-0.25267,1.9552-0.38202,3.0862-0.38202,1.6965,0,3.2697,0.27373,4.7286,0.82118,1.4498,0.55046,2.6982,1.3957,3.7359,2.5448,1.0348,1.149,1.8469,2.6079,2.4274,4.3766,0.59257,1.7687,0.88134,3.8532,0.88134,6.2596,0,4.8128-1.3506,8.5758-4.0487,11.295-2.6982,2.7192-6.5153,4.0698-11.457,4.0698-0.83321,0-1.6784-0.0511-2.5508-0.15942-0.86931-0.10829-1.6183-0.25869-2.262-0.43315v10.844c-0.4512,0.0722-0.93548,0.12934-1.4408,0.16543-0.51136,0.0361-0.97158,0.0541-1.3867,0.0541-0.41811,0-0.87532-0.0181-1.3897-0.0541-0.51136-0.0361-0.97158-0.0932-1.3867-0.16543v-38.962z" fill="#FFF" fill-rule="nonzero"/>
 <path id="path38" d="m179.27,72.09c-0.5294-0.1143-0.96857-0.19552-1.3265-0.24966-0.36697-0.0541-0.69785-0.0902-1.0167-0.10829-0.32486-0.0181-0.64671-0.0331-0.96857-0.0511-0.31884-0.0211-0.68281-0.0301-1.1009-0.0301-1.6634,0-3.1133,0.27373-4.3586,0.82118-1.2453,0.54746-2.277,1.3115-3.0832,2.2981-0.81216,0.98361-1.4258,2.1507-1.8439,3.4953-0.4151,1.3506-0.61965,2.8486-0.61965,4.4849,0,1.6424,0.2256,3.0501,0.68281,4.2112,0.4512,1.1731,1.0799,2.1266,1.892,2.8786,0.80915,0.74297,1.7627,1.2874,2.8576,1.6063,1.0949,0.32487,2.3011,0.49632,3.6216,0.49632,0.98061,0,1.9161-0.0722,2.8064-0.22259,0.88735-0.14137,1.6995-0.30982,2.4575-0.48729v-19.143zm0,23.733c-0.79411,0.18649-1.6333,0.32787-2.5207,0.43615-0.88735,0.11431-1.874,0.16544-2.9689,0.16544-1.9612,0-3.8322-0.2256-5.6009-0.68281-1.7777-0.45721-3.3328-1.2273-4.6744-2.3252-1.3386-1.0949-2.4064-2.5267-3.1975-4.2924-0.78508-1.7687-1.1851-3.9675-1.1851-6.5875,0-2.262,0.36998-4.3405,1.1009-6.2356,0.73996-1.892,1.7867-3.5314,3.1464-4.897,1.3566-1.3686,3.005-2.4214,4.9481-3.1734,1.9402-0.74297,4.1209-1.119,6.5394-1.119,2.1086,0,3.9254,0.10528,5.4324,0.32787,1.507,0.21958,3.02,0.52941,4.533,0.92947v38.466c-0.41811,0.0722-0.88134,0.12935-1.3867,0.16845-0.51436,0.0361-0.97759,0.0541-1.3897,0.0541-0.41811,0-0.88134-0.018-1.3897-0.0541-0.51136-0.0391-0.96857-0.0963-1.3867-0.16845v-11.012z" fill="#FFF" fill-rule="nonzero"/>
 <path id="path40" d="m188.65,67.68c0.41811-0.0722,0.88735-0.12634,1.4168-0.16243,0.5264-0.0331,0.9806-0.0511,1.3566-0.0511,0.41811,0,0.88735,0.0181,1.4198,0.0511,0.52039,0.0361,0.99565,0.0902,1.4108,0.16243v15.371c0,1.7506,0.17145,3.1975,0.51135,4.3465,0.33991,1.1521,0.84525,2.0514,1.5281,2.7132,0.67679,0.65273,1.51,1.1069,2.4906,1.3626,0.97458,0.25567,2.1086,0.38201,3.396,0.38201,1.9221,0,3.5614-0.19853,4.9271-0.6046v-23.571c0.40608-0.0722,0.87532-0.12634,1.3807-0.16243,0.51136-0.0331,0.96857-0.0511,1.3867-0.0511,0.4151,0,0.87532,0.0181,1.3897,0.0511,0.51135,0.0361,0.96857,0.0902,1.3867,0.16243v27.189c-1.3235,0.36095-2.8937,0.70687-4.7255,1.0347-1.8319,0.32787-3.7269,0.49331-5.6911,0.49331-1.8469,0-3.5915-0.15942-5.2369-0.46323-1.6394-0.30982-3.0832-0.93849-4.3285-1.889-1.2453-0.94751-2.2259-2.2831-2.9448-3.9976-0.71891-1.7085-1.0738-3.9705-1.0738-6.774v-15.593z" fill="#FFF" fill-rule="nonzero"/>
 <path id="path42" d="m233.36,82.56c-0.5655-0.0692-1.2814-0.14138-2.1507-0.21958-0.8693-0.0752-1.6032-0.10829-2.2078-0.10829-2.3432,0-4.1209,0.42112-5.3512,1.2573-1.2273,0.83922-1.8409,2.1206-1.8409,3.8292,0,1.0949,0.20756,1.9522,0.62566,2.5748,0.4121,0.61663,0.93849,1.0889,1.5581,1.4138,0.62265,0.33689,1.3085,0.53241,2.0635,0.60159,0.752,0.0812,1.4739,0.11431,2.1507,0.11431,0.86931,0,1.7627-0.0451,2.6921-0.13536,0.92345-0.0933,1.7446-0.22861,2.4605-0.4121v-8.9156zm0-5.3061c0-2.1507-0.5655-3.6457-1.6965-4.4849-1.131-0.83321-2.7764-1.2573-4.9271-1.2573-1.3235,0-2.5568,0.10227-3.7058,0.3038-1.152,0.20455-2.271,0.46624-3.3689,0.7911-0.7159-1.2002-1.0708-2.644-1.0708-4.3225,1.2814-0.39705,2.6891-0.70687,4.2382-0.92946,1.5491-0.21357,3.0381-0.32787,4.4729-0.32787,3.769,0,6.6386,0.83321,8.6088,2.4906,1.9582,1.6604,2.9388,4.3104,2.9388,7.9561v17.558c-1.3205,0.29177-2.9207,0.58956-4.8098,0.9054-1.889,0.30381-3.8141,0.46022-5.7723,0.46022-1.8529,0-3.5193-0.16243-5.0143-0.48729-1.489-0.33088-2.7523-0.86028-3.787-1.5882-1.0378-0.73094-1.8409-1.6634-2.4064-2.7914s-0.84524-2.4966-0.84524-4.0999c0-1.5702,0.32486-2.9448,0.98662-4.13,0.65574-1.1851,1.5551-2.1688,2.6861-2.9538,1.131-0.78208,2.4365-1.3626,3.9074-1.7506,1.4709-0.38201,3.014-0.57452,4.6383-0.57452,1.2122,0,2.1988,0.0301,2.9749,0.0872,0.77004,0.0511,1.4198,0.11731,1.9522,0.18649v-1.0408z" fill="#FFF" fill-rule="nonzero"/>
 <path id="path44" d="m243.25,90.71c1.0197,0.40006,2.1447,0.71289,3.372,0.95052,1.2272,0.24064,2.4425,0.36096,3.6517,0.36096,0.86329,0,1.6965-0.0933,2.4876-0.27673,0.79411-0.18349,1.4769-0.45421,2.0695-0.82419,0.58055-0.36096,1.0528-0.80614,1.4077-1.3386,0.36096-0.52941,0.53843-1.119,0.53843-1.7747,0-0.72492-0.13837-1.3325-0.42413-1.8018-0.27673-0.47827-0.65874-0.87532-1.131-1.2062-0.47225-0.32486-1.0167-0.61062-1.6363-0.85126-0.62566-0.22861-1.2934-0.46323-2.0123-0.6798l-1.9792-0.7129c-2.4184-0.87532-4.1691-1.8559-5.267-2.9538-1.0949-1.0889-1.6424-2.5688-1.6424-4.4247,0-2.4846,0.91743-4.4488,2.7463-5.9077,1.8349-1.4589,4.521-2.1868,8.0704-2.1868,1.4649,0,2.9117,0.12935,4.3315,0.4121,1.4077,0.26771,2.644,0.58956,3.7028,0.95353-0.0782,0.73094-0.21958,1.4559-0.42713,2.1898-0.20454,0.72793-0.46022,1.3987-0.76403,2.0214-0.8302-0.29478-1.8168-0.57453-2.9719-0.84825-1.149-0.27373-2.3883-0.40909-3.7058-0.40909-1.3987,0-2.632,0.23763-3.7118,0.70688-1.0708,0.47827-1.6063,1.3175-1.6063,2.5207,0,0.61663,0.13235,1.143,0.39404,1.5822,0.2617,0.43616,0.61965,0.81517,1.0799,1.122,0.45119,0.30982,0.96857,0.57452,1.5521,0.7911,0.58655,0.21958,1.2122,0.44217,1.895,0.65875l2.4876,0.81817c0.91142,0.29177,1.7687,0.64371,2.5808,1.0408,0.80915,0.40006,1.507,0.90239,2.0906,1.501,0.58655,0.60461,1.0588,1.3355,1.4168,2.1928,0.35795,0.85727,0.53542,1.883,0.53542,3.0892,0,1.3446-0.27975,2.5808-0.84525,3.6908-0.5655,1.1099-1.3716,2.0575-2.4064,2.8425-1.0348,0.78809-2.2921,1.3957-3.766,1.8349-1.4709,0.43615-3.0952,0.65574-4.8639,0.65574-1.8168,0-3.402-0.11731-4.7586-0.35795-1.3566-0.23463-2.62-0.55347-3.7961-0.95654,0.0812-0.72793,0.24063-1.4679,0.48729-2.2169,0.24966-0.74598,0.52038-1.4829,0.81817-2.2079" fill="#FFF" fill-rule="nonzero"/>
 <path id="path46" d="m268.92,72.27-4.4157,0-0.22559-0.76704,9.7308-10.501,0.46022,0,0,6.9424,7.3545,0c0.1504,0.62867,0.22559,1.3175,0.22559,2.0785,0,0.40608-0.018,0.78809-0.0572,1.1521-0.0361,0.36095-0.0902,0.72492-0.16844,1.0949h-7.3545v12.799c0,1.528,0.0602,2.7493,0.19552,3.6607,0.13235,0.91142,0.35795,1.6153,0.67981,2.1026,0.32185,0.49331,0.75801,0.82418,1.2964,0.98962,0.55046,0.16243,1.2393,0.24666,2.0695,0.24666,0.6437,0,1.2453-0.0481,1.8078-0.13837,0.56851-0.0902,1.0799-0.19251,1.5311-0.30381,0.26471,0.73094,0.42413,1.4739,0.48429,2.244,0.0541,0.77004,0.0842,1.4438,0.0842,2.0274-0.755,0.18348-1.5491,0.31283-2.3763,0.41209-0.83622,0.0872-1.7236,0.13536-2.6621,0.13536-2.7162,0-4.8368-0.63769-6.3679-1.9191-1.5311-1.2724-2.2921-3.387-2.2921-6.3408v-15.915z" fill="#FFF" fill-rule="nonzero"/>
 <text id="text48" style="word-spacing:0px;letter-spacing:0px;text-anchor:end;text-align:end;" font-family="Sans" xml:space="preserve" font-size="21.27057266px" line-height="125%" font-style="normal" y="59.511444" x="300.19116" font-weight="normal" fill="#ffffff"><tspan id="tspan50" font-size="22.3158741px" font-family="Aller" style="text-anchor:end;text-align:end;" font-style="normal" font-stretch="normal" font-variant="normal" y="59.511444" x="300.19116" font-weight="normal" fill="#ffffff">®</tspan></text>
 <rect id="rect52" stroke-linejoin="round" rx="10" ry="10" height="297.36" width="297.36" stroke="#b1daec" stroke-linecap="round" stroke-dasharray="none" stroke-miterlimit="4" y="9.1001" x="16.731" stroke-width="18.2" fill="none"/>
 <rect id="rect54" rx="9.81" ry="9.8102" height="293.16" width="293.16" y="11.2" x="18.831" fill="#363940"/>
 <rect id="rect56" height="61.619" width="330.82" y="140.97" x="0.0012322" fill="#b1daec"/>
 <g id="text58" style="letter-spacing:0px;word-spacing:0px;" font-weight="bold" font-size="31.64920044px" font-style="normal" font-stretch="normal" line-height="125%" font-variant="normal" font-family="Aller" fill="#363940">
  <path id="path3030" style="" d="m55.368,160.22c0.78068-0.12658,1.5508-0.18988,2.3104-0.1899,0.75958,0.00002,1.5403,0.0633,2.342,0.1899v22.756c-0.80179,0.1266-1.5719,0.1899-2.3104,0.1899-0.78068,0-1.5614-0.0633-2.342-0.1899v-22.756"/>
  <path id="path3032" style="" d="m64.455,160.22c0.65408-0.12658,1.2765-0.18988,1.8673-0.1899,0.63298,0.00002,1.2871,0.0633,1.9622,0.1899l8.7985,14.495v-14.495c0.75956-0.12658,1.4875-0.18988,2.1838-0.1899,0.65407,0.00002,1.287,0.0633,1.899,0.1899v22.756c-0.6752,0.1266-1.2871,0.1899-1.8357,0.1899-0.5908,0-1.2343-0.0633-1.9306-0.1899l-8.8618-14.464v14.464c-0.67519,0.1266-1.3609,0.1899-2.0572,0.1899-0.69629,0-1.3715-0.0633-2.0255-0.1899v-22.756"/>
  <path id="path3034" style="" d="m90.026,164.15-5.6652,0c-0.1266-0.63297-0.1899-1.2976-0.1899-1.9939,0-0.65406,0.0633-1.2976,0.1899-1.9306h15.983c0.12658,0.633,0.18988,1.2765,0.1899,1.9306-0.00002,0.6963-0.0633,1.3609-0.1899,1.9939h-5.6652v18.831c-0.3798,0.0422-0.75959,0.0738-1.1394,0.095-0.3798,0.0422-0.74904,0.0633-1.1077,0.0633-0.3587,0-0.74904-0.0106-1.171-0.0317-0.4009-0.0211-0.81234-0.0633-1.2343-0.1266v-18.831"/>
  <path id="path3036" style="" d="m103.52,160.22,12.913,0c0.12658,0.633,0.18988,1.2765,0.1899,1.9306-0.00002,0.6963-0.0633,1.3609-0.1899,1.9939h-8.2921v4.9373h6.583c0.12659,0.6752,0.18988,1.3293,0.1899,1.9622-0.00002,0.6752-0.0633,1.3398-0.1899,1.9939h-6.583v6.0134h8.5136c0.12659,0.63299,0.18988,1.2765,0.1899,1.9306-0.00002,0.69629-0.0633,1.3609-0.1899,1.9939h-13.134v-22.756"/>
  <path id="path3038" style="" d="m120.56,160.22c0.92837-0.10548,1.7934-0.18988,2.5952-0.2532,0.82288-0.0844,1.7302-0.12657,2.7218-0.12659,1.1605,0.00002,2.2998,0.10552,3.4181,0.31649,1.1394,0.21102,2.1627,0.59081,3.07,1.1394,0.90726,0.52751,1.6352,1.2554,2.1838,2.1838,0.56967,0.9073,0.85452,2.0678,0.85453,3.4814-0.00001,0.84399-0.10551,1.593-0.31649,2.2471-0.21101,0.633-0.4853,1.1921-0.82288,1.6774-0.31651,0.4853-0.66465,0.90729-1.0444,1.266-0.37981,0.33761-0.7385,0.6119-1.0761,0.82288l-0.53803,0.34815,5.5386,9.6214c-0.42201,0.0422-0.8651,0.0844-1.3293,0.1266s-0.93894,0.0633-1.4242,0.0633c-0.8018,0-1.593-0.0633-2.3737-0.1899l-5.95-10.571,0.75958-0.37979c0.29538-0.14769,0.65407-0.33758,1.0761-0.56969,0.42198-0.23208,0.82287-0.51692,1.2027-0.85453,0.40088-0.35867,0.73847-0.78066,1.0128-1.266,0.27428-0.50638,0.41142-1.0972,0.41144-1.7724-0.00002-1.3292-0.37981-2.2998-1.1394-2.9117-0.75959-0.63297-1.7407-0.94946-2.9434-0.94948-0.4642,0.00002-0.88619,0.0317-1.266,0.095v19.211c-0.3798,0.0422-0.75959,0.0738-1.1394,0.095-0.3798,0.0422-0.74904,0.0633-1.1077,0.0633-0.3587,0-0.73849-0.0106-1.1394-0.0317-0.4009-0.0211-0.81234-0.0633-1.2343-0.1266v-22.756"/>
  <path id="path3040" style="" d="m140.32,160.22c0.84398-0.12658,1.6563-0.18988,2.437-0.1899,0.82287,0.00002,1.6352,0.0633,2.437,0.1899l5.2221,13.039,5.3804-13.039c0.65407-0.12658,1.382-0.18988,2.1838-0.1899,0.80175,0.00002,1.5719,0.0633,2.3104,0.1899l1.0761,22.756c-0.8018,0.1266-1.5614,0.1899-2.2787,0.1899-0.7174,0-1.4242-0.0633-2.1205-0.1899l-0.56968-15.445-4.6208,10.697c-0.2954,0.0422-0.60135,0.0844-0.91782,0.1266-0.31651,0.0211-0.633,0.0316-0.94948,0.0316-0.27431,0-0.5486-0.0105-0.82288-0.0316-0.2743-0.0211-0.55915-0.0633-0.85453-0.1266l-4.3043-10.919-0.44309,15.666c-0.67519,0.1266-1.3293,0.1899-1.9622,0.1899-0.67518,0-1.3715-0.0633-2.0888-0.1899l0.88618-22.756"/>
  <path id="path3042" style="" d="m165.52,160.22,12.913,0c0.12658,0.633,0.18988,1.2765,0.1899,1.9306-0.00002,0.6963-0.0633,1.3609-0.1899,1.9939h-8.2921v4.9373h6.583c0.12659,0.6752,0.18988,1.3293,0.1899,1.9622-0.00002,0.6752-0.0633,1.3398-0.1899,1.9939h-6.583v6.0134h8.5136c0.12659,0.63299,0.18988,1.2765,0.1899,1.9306-0.00002,0.69629-0.0633,1.3609-0.1899,1.9939h-13.134v-22.756m5.95-5.2538c0.46418-0.0633,0.97056-0.11602,1.5192-0.15825,0.56967-0.0422,1.1394-0.0633,1.709-0.0633,0.54858,0.00003,1.0761,0.0211,1.5825,0.0633,0.50638,0.0422,0.93892,0.095,1.2976,0.15825l-4.6524,3.2915c-0.3798,0.0844-0.75959,0.13717-1.1394,0.15824-0.3798,0.0211-0.74904,0.0317-1.1077,0.0316-0.78069,0.00003-1.5508-0.0633-2.3104-0.18989l3.1016-3.2915"/>
  <path id="path3044" style="" d="m182.43,160.22c0.88618-0.10548,1.8146-0.18988,2.7851-0.2532,0.97057-0.0844,2.0466-0.12657,3.2282-0.12659,3.9878,0.00002,7.0156,0.99169,9.0833,2.975,2.0888,1.9834,3.1332,4.9584,3.1333,8.9251-0.00002,3.9878-1.055,6.9206-3.1649,8.7985-2.11,1.8779-5.2432,2.8168-9.3998,2.8168-1.0761,0-2.0678-0.0422-2.975-0.12659-0.90728-0.0633-1.804-0.1477-2.6902-0.2532v-22.756m4.6524,19.084c0.18989,0.0211,0.43253,0.0422,0.72793,0.0633,0.29539,0.0211,0.65408,0.0317,1.0761,0.0317,0.97056,0.00001,1.8673-0.10549,2.6902-0.31649,0.84397-0.23209,1.5719-0.64353,2.1838-1.2343,0.61187-0.59078,1.0972-1.382,1.4559-2.3737,0.35867-0.99167,0.53802-2.2682,0.53803-3.8296-0.00001-1.5192-0.17936-2.7851-0.53803-3.7979-0.35871-1.0128-0.844-1.8145-1.4559-2.4053-0.61189-0.59076-1.3187-1.0022-2.1205-1.2343-0.78069-0.25318-1.6141-0.37978-2.5003-0.37979-0.2954,0.00001-0.64354,0.0106-1.0444,0.0316-0.3798,0.00002-0.71739,0.0211-1.0128,0.0633v15.382"/>
  <path id="path3046" style="" d="m204.47,160.22c0.78067-0.12658,1.5508-0.18988,2.3104-0.1899,0.75957,0.00002,1.5402,0.0633,2.342,0.1899v22.756c-0.80179,0.1266-1.5719,0.1899-2.3104,0.1899-0.78069,0-1.5614-0.0633-2.342-0.1899v-22.756"/>
  <path id="path3048" style="" d="m218.84,160.22c0.44308-0.0633,0.86507-0.10548,1.266-0.1266,0.40088-0.0422,0.84397-0.0633,1.3293-0.0633,0.42198,0.00002,0.83342,0.0211,1.2343,0.0633,0.40088,0.0211,0.84397,0.0633,1.3293,0.1266l7.1211,22.756c-0.8651,0.1266-1.7091,0.1899-2.5319,0.1899-0.80179,0-1.5825-0.0633-2.342-0.1899l-1.266-4.5575h-7.5325l-1.2976,4.5575c-0.75959,0.1266-1.4875,0.1899-2.1838,0.1899-0.78068,0-1.5508-0.0633-2.3104-0.1899l7.1844-22.756m5.0639,14.369-2.6269-9.5581-2.7535,9.5581,5.3804,0"/>
  <path id="path3050" style="" d="m233.7,160.22c0.78068-0.12658,1.5508-0.18988,2.3104-0.1899,0.75957,0.00002,1.5402,0.0633,2.342,0.1899v22.756c-0.80179,0.1266-1.5719,0.1899-2.3104,0.1899-0.78068,0-1.5614-0.0633-2.342-0.1899v-22.756"/>
  <path id="path3052" style="" d="m243.01,160.22c0.92837-0.10548,1.7934-0.18988,2.5952-0.2532,0.82287-0.0844,1.7302-0.12657,2.7218-0.12659,1.1605,0.00002,2.2998,0.10552,3.4181,0.31649,1.1394,0.21102,2.1627,0.59081,3.07,1.1394,0.90726,0.52751,1.6352,1.2554,2.1838,2.1838,0.56967,0.9073,0.85451,2.0678,0.85453,3.4814-0.00002,0.84399-0.10551,1.593-0.31649,2.2471-0.21101,0.633-0.48531,1.1921-0.82288,1.6774-0.31651,0.4853-0.66465,0.90729-1.0444,1.266-0.37981,0.33761-0.7385,0.6119-1.0761,0.82288l-0.53803,0.34815,5.5386,9.6214c-0.42201,0.0422-0.8651,0.0844-1.3293,0.1266-0.46421,0.0422-0.93894,0.0633-1.4242,0.0633-0.8018,0-1.593-0.0633-2.3737-0.1899l-5.95-10.571,0.75958-0.37979c0.29538-0.14769,0.65407-0.33758,1.0761-0.56969,0.42198-0.23208,0.82287-0.51692,1.2027-0.85453,0.40088-0.35867,0.73847-0.78066,1.0128-1.266,0.27428-0.50638,0.41143-1.0972,0.41144-1.7724-0.00001-1.3292-0.3798-2.2998-1.1394-2.9117-0.75959-0.63297-1.7407-0.94946-2.9434-0.94948-0.4642,0.00002-0.88619,0.0317-1.266,0.095v19.211c-0.3798,0.0422-0.75959,0.0738-1.1394,0.095-0.3798,0.0422-0.74904,0.0633-1.1077,0.0633-0.3587,0-0.73849-0.0106-1.1394-0.0317-0.40089-0.0211-0.81233-0.0633-1.2343-0.1266v-22.756"/>
  <path id="path3054" style="" d="m262.14,160.22,12.913,0c0.12658,0.633,0.18988,1.2765,0.18989,1.9306-0.00001,0.6963-0.0633,1.3609-0.18989,1.9939h-8.2921v4.9373h6.583c0.12658,0.6752,0.18988,1.3293,0.1899,1.9622-0.00002,0.6752-0.0633,1.3398-0.1899,1.9939h-6.583v6.0134h8.5136c0.12658,0.63299,0.18988,1.2765,0.1899,1.9306-0.00002,0.69629-0.0633,1.3609-0.1899,1.9939h-13.134v-22.756"/>
 </g>
 <rect id="rect62" height="67.94" width="256.42" y="56.22" x="31.811" fill="none"/>
 <path id="path64" d="m80.371,79.43-2.3703,2.3372-22.746,22.698c-0.54745,0.54445-1.3566,0.66777-2.1206-0.0962l-4.4217-4.3646c-0.54445-0.59258-0.57453-1.4168,0.0571-2.0484l18.553-18.538,13.049,0.012z" fill="#2b7883" fill-rule="nonzero"/>
 <path id="path66" d="m80.371,79.43,10.131,10.152c0.50534,0.50534,0.54143,1.5642-0.0842,2.1868l-4.4127,4.4007c-0.52941,0.52941-1.4168,0.49331-1.9913-0.0782l-16.691-16.673,13.049,0.012z" fill="#2d9e9f" fill-rule="nonzero"/>
 <path id="path68" d="m46.561,84.12,2.3101-2.2891,22.292-22.295c0.54745-0.54144,1.4769-0.62566,2.1266,0.0932l4.4247,4.3616c0.57152,0.5655,0.57152,1.4168-0.0541,2.0484l-18.111,18.12-12.988-0.0391z" fill="#309751" fill-rule="nonzero"/>
 <path id="path70" d="m46.551,84.15-10.143-10.14c-0.50835-0.50534-0.54144-1.5581,0.0842-2.1838l4.4067-4.4097c0.52941-0.5294,1.4168-0.4933,1.9883,0.0722l16.664,16.673-13-0.012z" fill="#63bc51" fill-rule="nonzero"/>
 <path id="path72" d="m112.65,92.14c2.6019,0,4.524-0.91142,5.7693-2.7312,1.2453-1.8258,1.871-4.3525,1.871-7.6042,0-3.2426-0.62566-5.7693-1.871-7.5741s-3.1674-2.7072-5.7693-2.7072-4.521,0.9024-5.7482,2.7072c-1.2273,1.8048-1.8379,4.3315-1.8379,7.5741,0,3.2516,0.61062,5.7783,1.8379,7.6042,1.2273,1.8198,3.1464,2.7312,5.7482,2.7312m0,4.3195c-2.262,0-4.2473-0.36998-5.9438-1.122-1.6995-0.74297-3.1163-1.7717-4.2473-3.0862s-1.9702-2.8606-2.5207-4.6473c-0.54745-1.7898-0.81516-3.7239-0.81516-5.7994,0-2.0815,0.26771-4.0126,0.81516-5.7964,0.55046-1.7898,1.3897-3.3358,2.5207-4.6473,1.131-1.3145,2.5478-2.3522,4.2473-3.1193,1.6965-0.77004,3.6818-1.152,5.9438-1.152s4.2473,0.38201,5.9438,1.152c1.6965,0.76704,3.1133,1.8048,4.2412,3.1193,1.131,1.3115,1.9762,2.8576,2.5177,4.6473,0.54745,1.7837,0.82118,3.7149,0.82118,5.7964,0,2.0755-0.27373,4.0096-0.82118,5.7994-0.54143,1.7867-1.3867,3.3328-2.5177,4.6473-1.128,1.3145-2.5448,2.3432-4.2412,3.0862-1.6965,0.752-3.6818,1.122-5.9438,1.122" fill="#FFF" fill-rule="nonzero"/>
 <path id="path74" d="m135.32,91.22c0.71289,0.25568,1.4528,0.43616,2.2079,0.54745,0.75199,0.10829,1.7356,0.15943,2.9418,0.15943,1.3596,0,2.6049-0.20756,3.7359-0.62566,1.131-0.42112,2.1026-1.0678,2.9178-1.9371,0.80914-0.87533,1.4468-1.9793,1.9221-3.3148,0.47225-1.3265,0.70386-2.9087,0.70386-4.7285,0-2.9177-0.55347-5.2339-1.6664-6.9514-1.113-1.7055-2.9358-2.5658-5.4625-2.5658-0.94752,0-1.8469,0.16844-2.7162,0.4933-0.8693,0.32787-1.6424,0.81818-2.3222,1.4799-0.6798,0.65273-1.2272,1.4829-1.6363,2.4816-0.41811,1.0077-0.62566,2.1988-0.62566,3.5885v11.373zm-5.6039-23.465c0.376-0.0722,0.76704-0.12633,1.1611-0.15942,0.39104-0.0391,0.80313-0.0572,1.2152-0.0572,0.37299,0,0.77305,0.0181,1.1912,0.0572,0.40908,0.0331,0.80914,0.0872,1.1851,0.15942,0.0391,0.0782,0.0902,0.30381,0.14138,0.68582,0.0602,0.37901,0.1143,0.7911,0.17446,1.2303,0.0511,0.43615,0.11129,0.86028,0.16544,1.2573,0.0602,0.40006,0.0842,0.65574,0.0842,0.76403,0.38202-0.58054,0.83321-1.146,1.3626-1.6935,0.52639-0.54745,1.1551-1.0408,1.895-1.4769,0.73696-0.43917,1.5672-0.78508,2.4876-1.0408,0.92646-0.25267,1.9552-0.38202,3.0862-0.38202,1.6965,0,3.2697,0.27373,4.7286,0.82118,1.4498,0.55046,2.6982,1.3957,3.7359,2.5448,1.0348,1.149,1.8469,2.6079,2.4274,4.3766,0.59257,1.7687,0.88134,3.8532,0.88134,6.2596,0,4.8128-1.3506,8.5758-4.0487,11.295-2.6982,2.7192-6.5153,4.0698-11.457,4.0698-0.83321,0-1.6784-0.0511-2.5508-0.15942-0.86931-0.10829-1.6183-0.25869-2.262-0.43315v10.844c-0.4512,0.0722-0.93548,0.12934-1.4408,0.16543-0.51136,0.0361-0.97158,0.0542-1.3867,0.0542-0.41811,0-0.87532-0.0181-1.3897-0.0542-0.51136-0.0361-0.97158-0.0932-1.3867-0.16543v-38.962z" fill="#FFF" fill-rule="nonzero"/>
 <path id="path76" d="m179.27,72.09c-0.5294-0.1143-0.96857-0.19552-1.3265-0.24966-0.36697-0.0541-0.69785-0.0902-1.0167-0.10829-0.32486-0.018-0.64671-0.0331-0.96857-0.0511-0.31884-0.0211-0.68281-0.0301-1.1009-0.0301-1.6634,0-3.1133,0.27373-4.3586,0.82118-1.2453,0.54746-2.277,1.3115-3.0832,2.2981-0.81216,0.98361-1.4258,2.1507-1.8439,3.4953-0.4151,1.3506-0.61965,2.8486-0.61965,4.4849,0,1.6424,0.2256,3.0501,0.68281,4.2112,0.4512,1.1731,1.0799,2.1266,1.892,2.8786,0.80915,0.74297,1.7627,1.2874,2.8576,1.6063,1.0949,0.32487,2.3011,0.49632,3.6216,0.49632,0.98061,0,1.9161-0.0722,2.8064-0.22259,0.88735-0.14137,1.6995-0.30982,2.4575-0.48729v-19.143zm0,23.733c-0.79411,0.18649-1.6333,0.32787-2.5207,0.43615-0.88735,0.11431-1.874,0.16544-2.9689,0.16544-1.9612,0-3.8322-0.2256-5.6009-0.68281-1.7777-0.45721-3.3328-1.2273-4.6744-2.3252-1.3386-1.0949-2.4064-2.5267-3.1975-4.2924-0.78508-1.7687-1.1851-3.9675-1.1851-6.5875,0-2.262,0.36998-4.3405,1.1009-6.2356,0.73996-1.892,1.7867-3.5314,3.1464-4.897,1.3566-1.3686,3.005-2.4214,4.9481-3.1734,1.9402-0.74297,4.1209-1.119,6.5394-1.119,2.1086,0,3.9254,0.10528,5.4324,0.32787,1.507,0.21958,3.02,0.52941,4.533,0.92947v38.466c-0.41811,0.0722-0.88134,0.12935-1.3867,0.16845-0.51436,0.0361-0.97759,0.0541-1.3897,0.0541-0.41811,0-0.88134-0.018-1.3897-0.0541-0.51136-0.0391-0.96857-0.0963-1.3867-0.16845v-11.012z" fill="#FFF" fill-rule="nonzero"/>
 <path id="path78" d="m188.65,67.68c0.41811-0.0722,0.88735-0.12634,1.4168-0.16243,0.5264-0.0331,0.9806-0.0511,1.3566-0.0511,0.41811,0,0.88735,0.0181,1.4198,0.0511,0.52039,0.0361,0.99565,0.0902,1.4108,0.16243v15.371c0,1.7506,0.17145,3.1975,0.51135,4.3465,0.33991,1.1521,0.84525,2.0514,1.5281,2.7132,0.67679,0.65273,1.51,1.1069,2.4906,1.3626,0.97458,0.25567,2.1086,0.38201,3.396,0.38201,1.9221,0,3.5614-0.19853,4.9271-0.6046v-23.571c0.40608-0.0722,0.87532-0.12634,1.3807-0.16243,0.51136-0.0331,0.96857-0.0511,1.3867-0.0511,0.4151,0,0.87532,0.0181,1.3897,0.0511,0.51135,0.0361,0.96857,0.0902,1.3867,0.16243v27.189c-1.3235,0.36095-2.8937,0.70687-4.7255,1.0347-1.8319,0.32787-3.7269,0.49331-5.6911,0.49331-1.8469,0-3.5915-0.15942-5.2369-0.46323-1.6394-0.30982-3.0832-0.93849-4.3285-1.889-1.2453-0.94751-2.2259-2.2831-2.9448-3.9976-0.71891-1.7085-1.0738-3.9705-1.0738-6.774v-15.593z" fill="#FFF" fill-rule="nonzero"/>
 <path id="path80" d="m233.36,82.56c-0.5655-0.0692-1.2814-0.14138-2.1507-0.21958-0.8693-0.0752-1.6032-0.10829-2.2078-0.10829-2.3432,0-4.1209,0.42112-5.3512,1.2573-1.2273,0.83922-1.8409,2.1206-1.8409,3.8292,0,1.0949,0.20756,1.9522,0.62566,2.5748,0.4121,0.61663,0.93849,1.0889,1.5581,1.4138,0.62265,0.33689,1.3085,0.53241,2.0635,0.60159,0.752,0.0812,1.4739,0.11431,2.1507,0.11431,0.86931,0,1.7627-0.0451,2.6921-0.13536,0.92345-0.0933,1.7446-0.22861,2.4605-0.4121v-8.9156zm0-5.3061c0-2.1507-0.5655-3.6457-1.6965-4.4849-1.131-0.83321-2.7764-1.2573-4.9271-1.2573-1.3235,0-2.5568,0.10227-3.7058,0.3038-1.152,0.20455-2.271,0.46624-3.3689,0.7911-0.7159-1.2002-1.0708-2.644-1.0708-4.3225,1.2814-0.39705,2.6891-0.70687,4.2382-0.92946,1.5491-0.21357,3.0381-0.32787,4.4729-0.32787,3.769,0,6.6386,0.83321,8.6088,2.4906,1.9582,1.6604,2.9388,4.3104,2.9388,7.9561v17.558c-1.3205,0.29177-2.9207,0.58956-4.8098,0.9054-1.889,0.30381-3.8141,0.46022-5.7723,0.46022-1.8529,0-3.5193-0.16243-5.0143-0.48729-1.489-0.33088-2.7523-0.86028-3.787-1.5882-1.0378-0.73094-1.8409-1.6634-2.4064-2.7914s-0.84524-2.4966-0.84524-4.0999c0-1.5702,0.32486-2.9448,0.98662-4.13,0.65574-1.1851,1.5551-2.1688,2.6861-2.9538,1.131-0.78208,2.4365-1.3626,3.9074-1.7506,1.4709-0.38201,3.014-0.57452,4.6383-0.57452,1.2122,0,2.1988,0.0301,2.9749,0.0872,0.77004,0.0511,1.4198,0.11731,1.9522,0.18649v-1.0408z" fill="#FFF" fill-rule="nonzero"/>
 <path id="path82" d="m243.25,90.71c1.0197,0.40006,2.1447,0.71289,3.372,0.95052,1.2272,0.24064,2.4425,0.36096,3.6517,0.36096,0.86329,0,1.6965-0.0933,2.4876-0.27673,0.79411-0.18349,1.4769-0.45421,2.0695-0.82419,0.58055-0.36096,1.0528-0.80614,1.4077-1.3386,0.36096-0.52941,0.53843-1.119,0.53843-1.7747,0-0.72492-0.13837-1.3325-0.42413-1.8018-0.27673-0.47827-0.65874-0.87532-1.131-1.2062-0.47225-0.32486-1.0167-0.61062-1.6363-0.85126-0.62566-0.22861-1.2934-0.46323-2.0123-0.6798l-1.9792-0.7129c-2.4184-0.87532-4.1691-1.8559-5.267-2.9538-1.0949-1.0889-1.6424-2.5688-1.6424-4.4247,0-2.4846,0.91743-4.4488,2.7463-5.9077,1.8349-1.4589,4.521-2.1868,8.0704-2.1868,1.4649,0,2.9117,0.12935,4.3315,0.4121,1.4077,0.26771,2.644,0.58956,3.7028,0.95353-0.0782,0.73094-0.21958,1.4559-0.42713,2.1898-0.20454,0.72793-0.46022,1.3987-0.76403,2.0214-0.8302-0.29478-1.8168-0.57453-2.9719-0.84825-1.149-0.27373-2.3883-0.40909-3.7058-0.40909-1.3987,0-2.632,0.23763-3.7118,0.70688-1.0708,0.47827-1.6063,1.3175-1.6063,2.5207,0,0.61663,0.13235,1.143,0.39404,1.5822,0.2617,0.43616,0.61965,0.81517,1.0799,1.122,0.45119,0.30982,0.96857,0.57452,1.5521,0.7911,0.58655,0.21958,1.2122,0.44217,1.895,0.65875l2.4876,0.81817c0.91142,0.29177,1.7687,0.64371,2.5808,1.0408,0.80915,0.40006,1.507,0.90239,2.0906,1.501,0.58655,0.60461,1.0588,1.3355,1.4168,2.1928,0.35795,0.85727,0.53542,1.883,0.53542,3.0892,0,1.3446-0.27975,2.5808-0.84525,3.6908-0.5655,1.1099-1.3716,2.0575-2.4064,2.8425-1.0348,0.78809-2.2921,1.3957-3.766,1.8349-1.4709,0.43615-3.0952,0.65574-4.8639,0.65574-1.8168,0-3.402-0.11731-4.7586-0.35795-1.3566-0.23463-2.62-0.55347-3.7961-0.95654,0.0812-0.72793,0.24063-1.4679,0.48729-2.2169,0.24966-0.74598,0.52038-1.4829,0.81817-2.2079" fill="#FFF" fill-rule="nonzero"/>
 <path id="path84" d="m268.92,72.27-4.4157,0-0.22559-0.76704,9.7308-10.501,0.46022,0,0,6.9424,7.3545,0c0.1504,0.62867,0.22559,1.3175,0.22559,2.0785,0,0.40608-0.018,0.78809-0.0572,1.1521-0.0361,0.36095-0.0902,0.72492-0.16844,1.0949h-7.3545v12.799c0,1.528,0.0602,2.7493,0.19552,3.6607,0.13235,0.91142,0.35795,1.6153,0.67981,2.1026,0.32185,0.49331,0.75801,0.82418,1.2964,0.98962,0.55046,0.16243,1.2393,0.24666,2.0695,0.24666,0.6437,0,1.2453-0.0481,1.8078-0.13837,0.56851-0.0902,1.0799-0.19251,1.5311-0.30381,0.26471,0.73094,0.42413,1.4739,0.48429,2.244,0.0541,0.77004,0.0842,1.4438,0.0842,2.0274-0.755,0.18348-1.5491,0.31283-2.3763,0.41209-0.83622,0.0872-1.7236,0.13536-2.6621,0.13536-2.7162,0-4.8368-0.63769-6.3679-1.9191-1.5311-1.2724-2.2921-3.387-2.2921-6.3408v-15.915z" fill="#FFF" fill-rule="nonzero"/>
 <text id="text86" style="word-spacing:0px;letter-spacing:0px;text-anchor:end;text-align:end;" font-family="Sans" xml:space="preserve" font-size="21.27057266px" line-height="125%" font-style="normal" y="59.511444" x="300.19116" font-weight="normal" fill="#ffffff"><tspan id="tspan88" font-size="22.3158741px" font-family="Aller" style="text-anchor:end;text-align:end;" font-style="normal" font-stretch="normal" font-variant="normal" y="59.511444" x="300.19116" font-weight="normal" fill="#ffffff">®</tspan></text>
 <path id="path90" d="m0.00122,202.59,7.6282,0,0,7.6126z" fill="#76909d"/>
 <path id="path92" d="m330.83,202.59-7.6282,0,0,7.6126z" fill="#76909d"/>
 <g id="g3131" fill="#f4e20a" transform="translate(85.107371,0)">
  <path id="path96" d="m122.86,268.2-14.198-7.5179-14.203,7.5091,2.7626-15.826-11.53-11.187,15.905-2.2632,7.0768-14.423,7.0674,14.427,15.904,2.2736-11.538,11.18z"/>
  <path id="path102" d="m66.127,268.2-14.198-7.5179-14.203,7.5091,2.7626-15.826-11.53-11.187,15.905-2.2632,7.0768-14.423,7.0673,14.427,15.904,2.2736-11.538,11.18z"/>
 </g>
</svg>
